<?xml version="1.0" standalone="no"?>
<!DOCTYPE svg PUBLIC "-//W3C//DTD SVG 20010904//EN"
 "http://www.w3.org/TR/2001/REC-SVG-20010904/DTD/svg10.dtd">
<svg version="1.0" xmlns="http://www.w3.org/2000/svg"
 width="475.000000pt" height="475.000000pt" viewBox="0 0 475.000000 475.000000"
 preserveAspectRatio="xMidYMid meet">
<metadata>
Created by potrace 1.14, written by Peter Selinger 2001-2017
</metadata>
<g transform="translate(0.000000,475.000000) scale(0.100000,-0.100000)"
fill="#000000" stroke="none">
<path d="M2208 4695 c-2 -2 -34 -6 -71 -10 -37 -3 -76 -8 -85 -9 -9 -2 -51 -9
-92 -16 -187 -30 -399 -100 -605 -200 -568 -277 -1000 -776 -1193 -1380 -33
-105 -58 -197 -66 -250 -3 -19 -8 -46 -11 -60 -7 -33 -15 -93 -25 -187 -9 -79
-6 -427 4 -473 3 -14 8 -44 10 -65 33 -289 168 -653 341 -924 186 -293 448
-552 745 -736 252 -156 573 -272 885 -320 17 -3 46 -8 65 -11 62 -9 423 -13
485 -4 33 5 83 11 110 15 390 48 818 233 1140 493 121 98 287 268 388 399 200
260 383 665 432 963 3 19 10 53 15 75 31 142 34 574 5 727 -33 169 -81 361
-104 413 -5 11 -22 54 -37 95 -75 202 -236 470 -398 660 -58 68 -232 236 -308
297 -418 335 -959 521 -1493 512 -74 -1 -136 -3 -137 -4z"/>
</g>
</svg>
